<?xml version="1.0" standalone="no"?><svg xmlns="http://www.w3.org/2000/svg" viewBox="0 0 1440 320"><path fill="#0099ff" fill-opacity="1" d="M0,128L26.7,106.7C53.3,85,107,43,160,74.7C213.3,107,267,213,320,256C373.3,299,427,277,480,261.3C533.3,245,587,235,640,240C693.3,245,747,267,800,266.7C853.3,267,907,245,960,213.3C1013.3,181,1067,139,1120,112C1173.3,85,1227,75,1280,80C1333.3,85,1387,107,1413,117.3L1440,128L1440,320L1413.3,320C1386.7,320,1333,320,1280,320C1226.7,320,1173,320,1120,320C1066.7,320,1013,320,960,320C906.7,320,853,320,800,320C746.7,320,693,320,640,320C586.7,320,533,320,480,320C426.7,320,373,320,320,320C266.7,320,213,320,160,320C106.7,320,53,320,27,320L0,320Z"></path></svg>